<svg xmlns="http://www.w3.org/2000/svg" xmlns:xlink="http://www.w3.org/1999/xlink" width="1000" zoomAndPan="magnify" viewBox="0 0 750 225" height="300" preserveAspectRatio="xMidYMid meet" version="1.2"><defs><clipPath id="536b7b436a"><path d="M 692.25 34.257812 L 742.5 34.257812 L 742.5 68.757812 L 692.25 68.757812 Z M 692.25 34.257812 "/></clipPath></defs><g id="eb21aa1481"><g clip-rule="nonzero" clip-path="url(#536b7b436a)"><path style=" stroke:none;fill-rule:nonzero;fill:#ffffff;fill-opacity:1;" d="M 724.289062 56.433594 C 722.441406 60.097656 720.566406 63.746094 718.570312 67.335938 C 720.367188 62.59375 722.351562 57.921875 724.351562 53.265625 C 724.898438 54.480469 725.613281 56.074219 726.257812 57.515625 C 727.808594 53.519531 729.597656 49.054688 731.167969 45.25 L 731.996094 43.222656 L 732.722656 45.277344 C 733.082031 46.296875 733.695312 48.03125 734.203125 49.488281 C 736.851562 44.367188 739.585938 39.234375 742.476562 34.261719 C 740.089844 40.140625 737.433594 45.992188 734.746094 51.742188 C 734.746094 51.742188 733.992188 53.347656 733.992188 53.347656 C 733.394531 51.785156 732.609375 49.71875 731.914062 47.871094 L 731.316406 49.363281 C 729.796875 53.132812 727.867188 57.75 726.28125 61.484375 C 725.703125 60.023438 724.941406 58.101562 724.289062 56.433594 Z M 703.605469 58.664062 C 704.449219 58.238281 705.289062 57.808594 706.128906 57.378906 L 707.1875 56.835938 L 706.273438 56.039062 C 704.144531 54.175781 701.632812 52.023438 699.371094 50.132812 C 700.796875 49.378906 702.511719 48.457031 703.707031 47.816406 C 703.707031 47.816406 703.046875 47.160156 703.046875 47.160156 C 700.03125 44.191406 696.960938 41.246094 693.769531 38.464844 C 696.199219 41.527344 698.777344 44.496094 701.386719 47.410156 C 699.804688 48.160156 697.839844 49.105469 696.453125 49.78125 C 698.535156 51.605469 701.121094 53.84375 703.242188 55.628906 L 704.3125 56.523438 C 703.542969 56.953125 702.769531 57.382812 702.003906 57.820312 L 701.089844 58.339844 C 701.089844 58.339844 701.851562 59.015625 701.851562 59.015625 C 705.359375 62.097656 708.917969 65.128906 712.625 67.976562 C 709.730469 64.765625 706.691406 61.691406 703.605469 58.664062 Z M 729.238281 65.730469 C 728.660156 64.890625 728.058594 64.054688 727.453125 63.246094 C 725.695312 64.953125 723.996094 66.707031 722.507812 68.660156 C 724.140625 67.707031 725.664062 66.613281 727.152344 65.460938 C 727.691406 66.367188 728.253906 67.273438 728.828125 68.148438 C 731.425781 66.238281 733.960938 64.230469 736.289062 61.996094 C 736.996094 61.316406 737.691406 60.625 738.34375 59.875 C 737.445312 60.300781 736.59375 60.785156 735.75 61.285156 C 733.488281 62.628906 731.328125 64.136719 729.238281 65.730469 Z M 703.210938 63.25 C 700.550781 61.429688 697.816406 59.703125 694.9375 58.242188 C 694.066406 57.800781 693.179688 57.371094 692.257812 57.003906 C 692.957031 57.710938 693.695312 58.359375 694.445312 58.988281 C 696.464844 60.679688 698.597656 62.21875 700.792969 63.664062 C 700.191406 64.488281 699.601562 65.332031 699.039062 66.171875 C 701.230469 67.265625 703.445312 68.289062 705.78125 69.050781 C 704.339844 67.820312 702.808594 66.746094 701.230469 65.722656 C 701.90625 64.914062 702.574219 64.082031 703.210938 63.25 Z M 708.859375 41.101562 C 708.917969 42.09375 709.046875 43.066406 709.195312 44.035156 C 709.59375 46.640625 710.183594 49.203125 710.878906 51.738281 C 709.882812 51.960938 708.882812 52.207031 707.90625 52.464844 C 708.832031 54.730469 709.820312 56.964844 711.074219 59.078125 C 710.800781 57.203125 710.355469 55.382812 709.847656 53.574219 C 710.890625 53.414062 711.941406 53.230469 712.96875 53.023438 C 712.171875 49.898438 711.253906 46.800781 710.058594 43.800781 C 709.691406 42.890625 709.308594 41.988281 708.859375 41.101562 Z M 718.230469 48.640625 C 718.464844 48.800781 718.699219 48.960938 718.933594 49.121094 C 719.980469 49.835938 721.171875 50.625 722.234375 51.332031 C 722.414062 46.476562 722.523438 41.589844 722.285156 36.734375 C 721.628906 40.613281 721.195312 44.542969 720.847656 48.460938 C 719.378906 47.398438 717.871094 46.335938 716.398438 45.308594 C 716.53125 49.082031 716.753906 52.980469 717.066406 56.761719 C 716.390625 56.523438 715.703125 56.28125 715.039062 56.058594 C 715.039062 56.058594 715.113281 56.855469 715.113281 56.855469 C 715.335938 59.097656 715.589844 61.339844 715.941406 63.566406 C 716.078125 61.605469 716.140625 59.636719 716.171875 57.671875 C 716.929688 58.027344 717.710938 58.382812 718.449219 58.730469 C 718.445312 55.414062 718.371094 51.988281 718.230469 48.640625 Z M 718.230469 48.640625 "/></g><g style="fill:#ffffff;fill-opacity:1;"><g transform="translate(22.499999, 148.487014)"><path style="stroke:none" d="M 3.578125 -57.96875 C 3.578125 -58.445312 3.753906 -58.863281 4.109375 -59.21875 C 4.472656 -59.582031 4.894531 -59.765625 5.375 -59.765625 L 14.34375 -59.765625 C 14.820312 -59.765625 15.238281 -59.582031 15.59375 -59.21875 C 15.957031 -58.863281 16.140625 -58.445312 16.140625 -57.96875 L 16.140625 -18.765625 C 16.140625 -17.960938 16.414062 -17.285156 16.96875 -16.734375 L 21.15625 -12.78125 C 21.789062 -12.144531 22.390625 -11.828125 22.953125 -11.828125 L 50.4375 -11.828125 C 50.914062 -11.828125 51.332031 -11.644531 51.6875 -11.28125 C 52.050781 -10.925781 52.234375 -10.515625 52.234375 -10.046875 L 52.234375 -1.796875 C 52.234375 -1.316406 52.050781 -0.894531 51.6875 -0.53125 C 51.332031 -0.175781 50.914062 0 50.4375 0 L 19.234375 0 C 17.878906 0 16.726562 -0.476562 15.78125 -1.4375 L 5.015625 -12.1875 C 4.703125 -12.582031 4.382812 -13.0625 4.0625 -13.625 C 3.738281 -14.1875 3.578125 -14.742188 3.578125 -15.296875 Z M 3.578125 -57.96875 "/></g></g><g style="fill:#ffffff;fill-opacity:1;"><g transform="translate(78.310131, 148.487014)"><path style="stroke:none" d="M 5.375 0 C 4.894531 0 4.472656 -0.175781 4.109375 -0.53125 C 3.753906 -0.894531 3.578125 -1.316406 3.578125 -1.796875 L 3.578125 -53.65625 C 3.578125 -54.132812 3.753906 -54.550781 4.109375 -54.90625 C 4.472656 -55.269531 4.894531 -55.453125 5.375 -55.453125 L 14.34375 -55.453125 C 14.820312 -55.453125 15.238281 -55.269531 15.59375 -54.90625 C 15.957031 -54.550781 16.140625 -54.132812 16.140625 -53.65625 L 16.140625 -1.796875 C 16.140625 -1.316406 15.957031 -0.894531 15.59375 -0.53125 C 15.238281 -0.175781 14.820312 0 14.34375 0 Z M 5.375 0 "/></g></g><g style="fill:#ffffff;fill-opacity:1;"><g transform="translate(98.028919, 148.487014)"><path style="stroke:none" d="M 47.921875 -32.03125 C 47.441406 -32.03125 47.023438 -32.207031 46.671875 -32.5625 C 46.316406 -32.925781 46.140625 -33.347656 46.140625 -33.828125 L 46.140625 -37.046875 C 46.140625 -37.921875 45.859375 -38.597656 45.296875 -39.078125 L 41.46875 -42.671875 C 40.832031 -43.304688 40.195312 -43.625 39.5625 -43.625 L 22.59375 -43.625 C 22.03125 -43.625 21.429688 -43.304688 20.796875 -42.671875 L 16.96875 -39.078125 C 16.414062 -38.523438 16.140625 -37.847656 16.140625 -37.046875 L 16.140625 -18.171875 C 16.140625 -17.765625 16.257812 -17.363281 16.5 -16.96875 L 17.09375 -16.25 L 20.671875 -12.421875 C 21.234375 -11.867188 21.910156 -11.59375 22.703125 -11.59375 L 45.890625 -11.59375 L 45.890625 -15.53125 L 27.609375 -15.53125 C 27.128906 -15.53125 26.707031 -15.707031 26.34375 -16.0625 C 25.988281 -16.425781 25.8125 -16.847656 25.8125 -17.328125 L 25.8125 -25.578125 C 25.8125 -26.054688 25.988281 -26.472656 26.34375 -26.828125 C 26.707031 -27.191406 27.128906 -27.375 27.609375 -27.375 L 55.9375 -27.375 C 56.414062 -27.375 56.832031 -27.191406 57.1875 -26.828125 C 57.539062 -26.472656 57.71875 -26.054688 57.71875 -25.578125 L 57.71875 -1.796875 C 57.71875 -1.316406 57.539062 -0.894531 57.1875 -0.53125 C 56.832031 -0.175781 56.414062 0 55.9375 0 L 18.890625 0 C 17.691406 0 16.65625 -0.4375 15.78125 -1.3125 L 5.015625 -11.828125 C 4.054688 -12.785156 3.578125 -13.984375 3.578125 -15.421875 L 3.578125 -40.15625 C 3.578125 -40.789062 3.738281 -41.382812 4.0625 -41.9375 C 4.382812 -42.5 4.703125 -42.941406 5.015625 -43.265625 L 15.78125 -54.015625 C 16.726562 -54.972656 17.878906 -55.453125 19.234375 -55.453125 L 42.3125 -55.453125 C 43.738281 -55.453125 44.929688 -54.972656 45.890625 -54.015625 L 56.40625 -43.265625 C 57.28125 -42.390625 57.71875 -41.351562 57.71875 -40.15625 L 57.71875 -33.828125 C 57.71875 -33.347656 57.539062 -32.925781 57.1875 -32.5625 C 56.832031 -32.207031 56.414062 -32.03125 55.9375 -32.03125 Z M 47.921875 -32.03125 "/></g></g><g style="fill:#ffffff;fill-opacity:1;"><g transform="translate(159.336416, 148.487014)"><path style="stroke:none" d="M 54.140625 -55.453125 C 54.617188 -55.453125 55.035156 -55.269531 55.390625 -54.90625 C 55.753906 -54.550781 55.9375 -54.132812 55.9375 -53.65625 L 55.9375 -1.796875 C 55.9375 -1.316406 55.753906 -0.894531 55.390625 -0.53125 C 55.035156 -0.175781 54.617188 0 54.140625 0 L 45.171875 0 C 44.691406 0 44.273438 -0.175781 43.921875 -0.53125 C 43.566406 -0.894531 43.390625 -1.316406 43.390625 -1.796875 L 43.390625 -21.875 L 16.140625 -21.875 L 16.140625 -1.796875 C 16.140625 -1.316406 15.957031 -0.894531 15.59375 -0.53125 C 15.238281 -0.175781 14.820312 0 14.34375 0 L 5.375 0 C 4.894531 0 4.472656 -0.175781 4.109375 -0.53125 C 3.753906 -0.894531 3.578125 -1.316406 3.578125 -1.796875 L 3.578125 -53.65625 C 3.578125 -54.132812 3.753906 -54.550781 4.109375 -54.90625 C 4.472656 -55.269531 4.894531 -55.453125 5.375 -55.453125 L 14.34375 -55.453125 C 14.820312 -55.453125 15.238281 -55.269531 15.59375 -54.90625 C 15.957031 -54.550781 16.140625 -54.132812 16.140625 -53.65625 L 16.140625 -33.703125 L 43.390625 -33.703125 L 43.390625 -53.65625 C 43.390625 -54.132812 43.566406 -54.550781 43.921875 -54.90625 C 44.273438 -55.269531 44.691406 -55.453125 45.171875 -55.453125 Z M 54.140625 -55.453125 "/></g></g><g style="fill:#ffffff;fill-opacity:1;"><g transform="translate(218.851309, 148.487014)"><path style="stroke:none" d="M 66.328125 -59.765625 C 66.804688 -59.765625 67.222656 -59.582031 67.578125 -59.21875 C 67.941406 -58.863281 68.125 -58.445312 68.125 -57.96875 L 68.125 -49 C 68.125 -48.519531 67.941406 -48.097656 67.578125 -47.734375 C 67.222656 -47.378906 66.804688 -47.203125 66.328125 -47.203125 L 42.1875 -47.203125 L 42.1875 -1.796875 C 42.1875 -1.316406 42.003906 -0.894531 41.640625 -0.53125 C 41.285156 -0.175781 40.867188 0 40.390625 0 L 31.4375 0 C 30.957031 0 30.535156 -0.175781 30.171875 -0.53125 C 29.816406 -0.894531 29.640625 -1.316406 29.640625 -1.796875 L 29.640625 -47.203125 L 5.375 -47.203125 C 4.894531 -47.203125 4.472656 -47.378906 4.109375 -47.734375 C 3.753906 -48.097656 3.578125 -48.519531 3.578125 -49 L 3.578125 -57.96875 C 3.578125 -58.445312 3.753906 -58.863281 4.109375 -59.21875 C 4.472656 -59.582031 4.894531 -59.765625 5.375 -59.765625 Z M 66.328125 -59.765625 "/></g></g><g style="fill:#ffffff;fill-opacity:1;"><g transform="translate(290.555957, 148.487014)"><path style="stroke:none" d="M 16.96875 -39.078125 C 16.414062 -38.523438 16.140625 -37.847656 16.140625 -37.046875 L 16.140625 -32.75 L 49.84375 -32.75 C 50.320312 -32.75 50.738281 -32.566406 51.09375 -32.203125 C 51.445312 -31.847656 51.625 -31.429688 51.625 -30.953125 L 51.625 -22.703125 C 51.625 -22.222656 51.445312 -21.804688 51.09375 -21.453125 C 50.738281 -21.097656 50.320312 -20.921875 49.84375 -20.921875 L 16.140625 -20.921875 L 16.140625 -18.171875 C 16.140625 -17.765625 16.257812 -17.363281 16.5 -16.96875 L 17.09375 -16.25 L 20.671875 -12.421875 C 21.234375 -11.867188 21.910156 -11.59375 22.703125 -11.59375 L 55.6875 -11.59375 C 56.164062 -11.59375 56.582031 -11.410156 56.9375 -11.046875 C 57.300781 -10.691406 57.484375 -10.273438 57.484375 -9.796875 L 57.484375 -1.796875 C 57.484375 -1.316406 57.300781 -0.894531 56.9375 -0.53125 C 56.582031 -0.175781 56.164062 0 55.6875 0 L 18.890625 0 C 17.691406 0 16.65625 -0.4375 15.78125 -1.3125 L 5.015625 -11.828125 C 4.054688 -12.785156 3.578125 -13.984375 3.578125 -15.421875 L 3.578125 -40.15625 C 3.578125 -40.789062 3.738281 -41.382812 4.0625 -41.9375 C 4.382812 -42.5 4.703125 -42.941406 5.015625 -43.265625 L 15.78125 -54.015625 C 16.726562 -54.972656 17.878906 -55.453125 19.234375 -55.453125 L 55.6875 -55.453125 C 56.164062 -55.453125 56.582031 -55.269531 56.9375 -54.90625 C 57.300781 -54.550781 57.484375 -54.132812 57.484375 -53.65625 L 57.484375 -45.421875 C 57.484375 -44.941406 57.300781 -44.519531 56.9375 -44.15625 C 56.582031 -43.800781 56.164062 -43.625 55.6875 -43.625 L 22.59375 -43.625 C 22.03125 -43.625 21.429688 -43.304688 20.796875 -42.671875 Z M 16.96875 -39.078125 "/></g></g><g style="fill:#ffffff;fill-opacity:1;"><g transform="translate(351.624444, 148.487014)"><path style="stroke:none" d="M 47.921875 -31.078125 C 47.441406 -31.078125 47.023438 -31.253906 46.671875 -31.609375 C 46.316406 -31.972656 46.140625 -32.390625 46.140625 -32.859375 L 46.140625 -37.046875 C 46.140625 -37.921875 45.859375 -38.597656 45.296875 -39.078125 L 41.46875 -42.671875 C 40.832031 -43.304688 40.195312 -43.625 39.5625 -43.625 L 22.59375 -43.625 C 22.03125 -43.625 21.429688 -43.304688 20.796875 -42.671875 L 16.96875 -39.078125 C 16.414062 -38.523438 16.140625 -37.847656 16.140625 -37.046875 L 16.140625 -17.5625 C 16.140625 -16.769531 16.414062 -16.09375 16.96875 -15.53125 L 20.796875 -11.953125 C 21.429688 -11.316406 22.03125 -11 22.59375 -11 L 39.5625 -11 C 40.195312 -11 40.832031 -11.316406 41.46875 -11.953125 L 45.296875 -15.53125 C 45.859375 -16.007812 46.140625 -16.6875 46.140625 -17.5625 L 46.140625 -21.75 C 46.140625 -22.226562 46.316406 -22.644531 46.671875 -23 C 47.023438 -23.363281 47.441406 -23.546875 47.921875 -23.546875 L 55.9375 -23.546875 C 56.414062 -23.546875 56.832031 -23.363281 57.1875 -23 C 57.539062 -22.644531 57.71875 -22.226562 57.71875 -21.75 L 57.71875 -14.46875 C 57.71875 -13.269531 57.28125 -12.234375 56.40625 -11.359375 L 45.890625 -0.59375 C 44.929688 0.4375 43.738281 0.953125 42.3125 0.953125 L 19.234375 0.953125 C 17.878906 0.953125 16.726562 0.4375 15.78125 -0.59375 L 5.015625 -11.359375 C 4.703125 -11.753906 4.382812 -12.226562 4.0625 -12.78125 C 3.738281 -13.34375 3.578125 -13.90625 3.578125 -14.46875 L 3.578125 -40.15625 C 3.578125 -40.789062 3.738281 -41.382812 4.0625 -41.9375 C 4.382812 -42.5 4.703125 -42.941406 5.015625 -43.265625 L 15.78125 -54.015625 C 16.726562 -54.972656 17.878906 -55.453125 19.234375 -55.453125 L 42.3125 -55.453125 C 43.738281 -55.453125 44.929688 -54.972656 45.890625 -54.015625 L 56.40625 -43.265625 C 57.28125 -42.390625 57.71875 -41.351562 57.71875 -40.15625 L 57.71875 -32.859375 C 57.71875 -32.390625 57.539062 -31.972656 57.1875 -31.609375 C 56.832031 -31.253906 56.414062 -31.078125 55.9375 -31.078125 Z M 47.921875 -31.078125 "/></g></g><g style="fill:#ffffff;fill-opacity:1;"><g transform="translate(412.931929, 148.487014)"><path style="stroke:none" d="M 55.9375 -59.765625 C 56.414062 -59.765625 56.832031 -59.582031 57.1875 -59.21875 C 57.539062 -58.863281 57.71875 -58.445312 57.71875 -57.96875 L 57.71875 -1.796875 C 57.71875 -1.316406 57.539062 -0.894531 57.1875 -0.53125 C 56.832031 -0.175781 56.414062 0 55.9375 0 L 46.96875 0 C 46.488281 0 46.066406 -0.175781 45.703125 -0.53125 C 45.347656 -0.894531 45.171875 -1.316406 45.171875 -1.796875 L 45.171875 -24.734375 L 16.140625 -24.734375 L 16.140625 -1.796875 C 16.140625 -1.316406 15.957031 -0.894531 15.59375 -0.53125 C 15.238281 -0.175781 14.820312 0 14.34375 0 L 5.375 0 C 4.894531 0 4.472656 -0.175781 4.109375 -0.53125 C 3.753906 -0.894531 3.578125 -1.316406 3.578125 -1.796875 L 3.578125 -57.96875 C 3.578125 -58.445312 3.753906 -58.863281 4.109375 -59.21875 C 4.472656 -59.582031 4.894531 -59.765625 5.375 -59.765625 L 14.34375 -59.765625 C 14.820312 -59.765625 15.238281 -59.582031 15.59375 -59.21875 C 15.957031 -58.863281 16.140625 -58.445312 16.140625 -57.96875 L 16.140625 -36.578125 L 45.171875 -36.578125 L 45.171875 -57.96875 C 45.171875 -58.445312 45.347656 -58.863281 45.703125 -59.21875 C 46.066406 -59.582031 46.488281 -59.765625 46.96875 -59.765625 Z M 55.9375 -59.765625 "/></g></g><g style="fill:#ffffff;fill-opacity:1;"><g transform="translate(474.239436, 148.487014)"><path style="stroke:none" d="M 3.578125 -15.296875 L 3.578125 -40.15625 C 3.578125 -41.351562 4.019531 -42.390625 4.90625 -43.265625 L 15.421875 -54.015625 C 16.378906 -54.972656 17.570312 -55.453125 19 -55.453125 L 42.3125 -55.453125 C 43.738281 -55.453125 44.929688 -54.972656 45.890625 -54.015625 L 56.40625 -43.265625 C 57.28125 -42.390625 57.71875 -41.351562 57.71875 -40.15625 L 57.71875 -15.296875 C 57.71875 -14.097656 57.28125 -13.0625 56.40625 -12.1875 L 45.890625 -1.4375 C 44.929688 -0.476562 43.738281 0 42.3125 0 L 19 0 C 17.570312 0 16.378906 -0.476562 15.421875 -1.4375 L 4.90625 -12.1875 C 4.019531 -13.0625 3.578125 -14.097656 3.578125 -15.296875 Z M 15.171875 -18.40625 C 15.171875 -17.601562 15.453125 -16.925781 16.015625 -16.375 L 19.84375 -12.78125 L 20.5625 -12.1875 C 20.800781 -11.945312 21.195312 -11.828125 21.75 -11.828125 L 39.5625 -11.828125 C 40.039062 -11.828125 40.4375 -11.945312 40.75 -12.1875 L 41.46875 -12.78125 L 45.296875 -16.375 C 45.859375 -16.925781 46.140625 -17.601562 46.140625 -18.40625 L 46.140625 -37.046875 C 46.140625 -37.847656 45.859375 -38.523438 45.296875 -39.078125 L 41.46875 -42.671875 L 40.75 -43.265625 C 40.4375 -43.503906 40.039062 -43.625 39.5625 -43.625 L 21.75 -43.625 C 21.195312 -43.625 20.800781 -43.503906 20.5625 -43.265625 L 19.84375 -42.671875 L 16.015625 -39.078125 C 15.453125 -38.523438 15.171875 -37.847656 15.171875 -37.046875 Z M 15.171875 -18.40625 "/></g></g><g style="fill:#ffffff;fill-opacity:1;"><g transform="translate(535.546944, 148.487014)"><path style="stroke:none" d="M 3.578125 -53.65625 C 3.578125 -54.132812 3.753906 -54.550781 4.109375 -54.90625 C 4.472656 -55.269531 4.894531 -55.453125 5.375 -55.453125 L 13.390625 -55.453125 C 13.867188 -55.453125 14.285156 -55.269531 14.640625 -54.90625 C 14.992188 -54.550781 15.171875 -54.132812 15.171875 -53.65625 L 15.171875 -19.59375 C 15.171875 -18.800781 15.453125 -18.125 16.015625 -17.5625 L 21.75 -12.1875 C 21.988281 -11.945312 22.390625 -11.828125 22.953125 -11.828125 L 39.203125 -11.828125 C 39.679688 -11.828125 40.078125 -11.945312 40.390625 -12.1875 L 46.140625 -17.5625 C 46.691406 -18.125 46.96875 -18.800781 46.96875 -19.59375 L 46.96875 -53.65625 C 46.96875 -54.132812 47.144531 -54.550781 47.5 -54.90625 C 47.863281 -55.269531 48.285156 -55.453125 48.765625 -55.453125 L 56.765625 -55.453125 C 57.242188 -55.453125 57.660156 -55.269531 58.015625 -54.90625 C 58.378906 -54.550781 58.5625 -54.132812 58.5625 -53.65625 L 58.5625 -14.703125 C 58.5625 -13.421875 58.125 -12.382812 57.25 -11.59375 L 45.53125 -1.4375 C 44.976562 -1.039062 44.441406 -0.703125 43.921875 -0.421875 C 43.398438 -0.140625 42.742188 0 41.953125 0 L 20.203125 0 C 19.398438 0 18.738281 -0.140625 18.21875 -0.421875 C 17.707031 -0.703125 17.171875 -1.039062 16.609375 -1.4375 L 4.90625 -11.59375 C 4.019531 -12.382812 3.578125 -13.421875 3.578125 -14.703125 Z M 3.578125 -53.65625 "/></g></g><g style="fill:#ffffff;fill-opacity:1;"><g transform="translate(597.69097, 148.487014)"><path style="stroke:none" d="M 3.578125 -34.78125 L 3.578125 -42.3125 C 3.578125 -42.945312 3.738281 -43.539062 4.0625 -44.09375 C 4.382812 -44.65625 4.703125 -45.097656 5.015625 -45.421875 L 13.75 -54.015625 C 14.695312 -54.972656 15.847656 -55.453125 17.203125 -55.453125 L 52.703125 -55.453125 C 53.179688 -55.453125 53.597656 -55.269531 53.953125 -54.90625 C 54.316406 -54.550781 54.5 -54.132812 54.5 -53.65625 L 54.5 -45.421875 C 54.5 -44.941406 54.316406 -44.519531 53.953125 -44.15625 C 53.597656 -43.800781 53.179688 -43.625 52.703125 -43.625 L 20.5625 -43.625 C 20.15625 -43.625 19.554688 -43.304688 18.765625 -42.671875 L 16.96875 -41.234375 C 16.414062 -40.671875 16.140625 -39.992188 16.140625 -39.203125 L 16.140625 -37.53125 C 16.140625 -37.132812 16.257812 -36.734375 16.5 -36.328125 L 18.28125 -34.1875 C 18.84375 -33.625 19.519531 -33.34375 20.3125 -33.34375 L 46.015625 -33.34375 C 46.648438 -33.34375 47.222656 -33.222656 47.734375 -32.984375 C 48.253906 -32.742188 48.71875 -32.425781 49.125 -32.03125 L 56.296875 -25.09375 C 57.242188 -24.300781 57.71875 -23.109375 57.71875 -21.515625 L 57.71875 -12.90625 C 57.71875 -12.351562 57.578125 -11.796875 57.296875 -11.234375 C 57.023438 -10.671875 56.691406 -10.191406 56.296875 -9.796875 L 47.921875 -1.4375 C 46.960938 -0.476562 45.804688 0 44.453125 0 L 7.40625 0 C 6.925781 0 6.507812 -0.175781 6.15625 -0.53125 C 5.800781 -0.894531 5.625 -1.316406 5.625 -1.796875 L 5.625 -10.046875 C 5.625 -10.515625 5.800781 -10.925781 6.15625 -11.28125 C 6.507812 -11.644531 6.925781 -11.828125 7.40625 -11.828125 L 41.109375 -11.828125 C 41.515625 -11.828125 42.113281 -12.144531 42.90625 -12.78125 L 44.34375 -13.984375 C 44.894531 -14.535156 45.171875 -15.210938 45.171875 -16.015625 L 45.171875 -17.5625 C 45.171875 -18.039062 45.050781 -18.441406 44.8125 -18.765625 L 43.03125 -20.921875 C 42.46875 -21.472656 41.789062 -21.75 41 -21.75 L 16.5 -21.75 C 15.9375 -21.75 15.375 -21.890625 14.8125 -22.171875 C 14.257812 -22.453125 13.785156 -22.75 13.390625 -23.0625 L 5.015625 -31.1875 C 4.054688 -32.144531 3.578125 -33.34375 3.578125 -34.78125 Z M 3.578125 -34.78125 "/></g></g><g style="fill:#ffffff;fill-opacity:1;"><g transform="translate(658.998477, 148.487014)"><path style="stroke:none" d="M 16.96875 -39.078125 C 16.414062 -38.523438 16.140625 -37.847656 16.140625 -37.046875 L 16.140625 -32.75 L 49.84375 -32.75 C 50.320312 -32.75 50.738281 -32.566406 51.09375 -32.203125 C 51.445312 -31.847656 51.625 -31.429688 51.625 -30.953125 L 51.625 -22.703125 C 51.625 -22.222656 51.445312 -21.804688 51.09375 -21.453125 C 50.738281 -21.097656 50.320312 -20.921875 49.84375 -20.921875 L 16.140625 -20.921875 L 16.140625 -18.171875 C 16.140625 -17.765625 16.257812 -17.363281 16.5 -16.96875 L 17.09375 -16.25 L 20.671875 -12.421875 C 21.234375 -11.867188 21.910156 -11.59375 22.703125 -11.59375 L 55.6875 -11.59375 C 56.164062 -11.59375 56.582031 -11.410156 56.9375 -11.046875 C 57.300781 -10.691406 57.484375 -10.273438 57.484375 -9.796875 L 57.484375 -1.796875 C 57.484375 -1.316406 57.300781 -0.894531 56.9375 -0.53125 C 56.582031 -0.175781 56.164062 0 55.6875 0 L 18.890625 0 C 17.691406 0 16.65625 -0.4375 15.78125 -1.3125 L 5.015625 -11.828125 C 4.054688 -12.785156 3.578125 -13.984375 3.578125 -15.421875 L 3.578125 -40.15625 C 3.578125 -40.789062 3.738281 -41.382812 4.0625 -41.9375 C 4.382812 -42.5 4.703125 -42.941406 5.015625 -43.265625 L 15.78125 -54.015625 C 16.726562 -54.972656 17.878906 -55.453125 19.234375 -55.453125 L 55.6875 -55.453125 C 56.164062 -55.453125 56.582031 -55.269531 56.9375 -54.90625 C 57.300781 -54.550781 57.484375 -54.132812 57.484375 -53.65625 L 57.484375 -45.421875 C 57.484375 -44.941406 57.300781 -44.519531 56.9375 -44.15625 C 56.582031 -43.800781 56.164062 -43.625 55.6875 -43.625 L 22.59375 -43.625 C 22.03125 -43.625 21.429688 -43.304688 20.796875 -42.671875 Z M 16.96875 -39.078125 "/></g></g><g style="fill:#ffffff;fill-opacity:1;"><g transform="translate(720.070282, 148.487014)"><path style="stroke:none" d=""/></g></g></g></svg>